<svg width="37" height="30" viewBox="0 0 37 30" fill="none" xmlns="http://www.w3.org/2000/svg">
<path d="M35.2222 25.8889C35.2222 26.714 34.8944 27.5053 34.311 28.0888C33.7275 28.6722 32.9362 29 32.1111 29H4.11111C3.28599 29 2.49467 28.6722 1.91122 28.0888C1.32778 27.5053 1 26.714 1 25.8889V8.77778C1 7.95266 1.32778 7.16134 1.91122 6.57789C2.49467 5.99444 3.28599 5.66667 4.11111 5.66667H10.3333L13.4444 1H22.7778L25.8889 5.66667H32.1111C32.9362 5.66667 33.7275 5.99444 34.311 6.57789C34.8944 7.16134 35.2222 7.95266 35.2222 8.77778V25.8889Z" stroke="#A7A7A7" stroke-width="2" stroke-linecap="round" stroke-linejoin="round"/>
<path d="M18.1109 22.7777C21.5473 22.7777 24.3331 19.9919 24.3331 16.5555C24.3331 13.119 21.5473 10.3333 18.1109 10.3333C14.6745 10.3333 11.8887 13.119 11.8887 16.5555C11.8887 19.9919 14.6745 22.7777 18.1109 22.7777Z" stroke="#A7A7A7" stroke-width="2" stroke-linecap="round" stroke-linejoin="round"/>
</svg>
