<svg width="32" height="32" viewBox="0 0 32 32" fill="none" xmlns="http://www.w3.org/2000/svg">
<path d="M14.4189 4.16284H3.98198C3.19111 4.16284 2.43263 4.47701 1.8734 5.03624C1.31417 5.59547 1 6.35395 1 7.14482V28.0187C1 28.8095 1.31417 29.568 1.8734 30.1272C2.43263 30.6865 3.19111 31.0006 3.98198 31.0006H24.8558C25.6467 31.0006 26.4052 30.6865 26.9644 30.1272C27.5236 29.568 27.8378 28.8095 27.8378 28.0187V17.5817" stroke="white" stroke-width="2" stroke-linecap="round" stroke-linejoin="round"/>
<path d="M25.6002 1.92638C26.1934 1.33323 26.9978 1 27.8367 1C28.6755 1 29.48 1.33323 30.0732 1.92638C30.6663 2.51953 30.9995 3.32402 30.9995 4.16286C30.9995 5.00171 30.6663 5.80619 30.0732 6.39935L15.9088 20.5637L9.94482 22.0547L11.4358 16.0908L25.6002 1.92638Z" stroke="white" stroke-width="2" stroke-linecap="round" stroke-linejoin="round"/>
</svg>
