<svg width="19" height="19" viewBox="0 0 19 19" fill="none" xmlns="http://www.w3.org/2000/svg">
<circle cx="9.5" cy="9.5" r="9" fill="black" fill-opacity="0.58" stroke="white"/>
<path d="M11.8084 5.37602C11.9276 5.25681 12.0691 5.16224 12.2249 5.09772C12.3807 5.03321 12.5476 5 12.7162 5C12.8848 5 13.0517 5.03321 13.2075 5.09772C13.3632 5.16224 13.5048 5.25681 13.624 5.37602C13.7432 5.49523 13.8378 5.63676 13.9023 5.79251C13.9668 5.94827 14 6.11521 14 6.28381C14 6.4524 13.9668 6.61934 13.9023 6.7751C13.8378 6.93086 13.7432 7.07238 13.624 7.19159L7.49642 13.3192L5 14L5.68084 11.5036L11.8084 5.37602Z" stroke="white" stroke-width="0.7" stroke-linecap="round" stroke-linejoin="round"/>
</svg>
