<svg width="37" height="37" viewBox="0 0 37 37" fill="none" xmlns="http://www.w3.org/2000/svg">
<circle cx="18.5" cy="18.5" r="18" fill="black" fill-opacity="0.58" stroke="white"/>
<path d="M23.2522 10.0094C23.4976 9.76401 23.789 9.56932 24.1097 9.43649C24.4303 9.30366 24.774 9.23529 25.1211 9.23529C25.4682 9.23529 25.8119 9.30366 26.1326 9.43649C26.4533 9.56932 26.7447 9.76401 26.9901 10.0094C27.2356 10.2549 27.4302 10.5463 27.5631 10.8669C27.6959 11.1876 27.7643 11.5313 27.7643 11.8784C27.7643 12.2255 27.6959 12.5692 27.5631 12.8899C27.4302 13.2106 27.2356 13.502 26.9901 13.7474L14.3745 26.363L9.23486 27.7647L10.6366 22.625L23.2522 10.0094Z" stroke="white" stroke-width="0.7" stroke-linecap="round" stroke-linejoin="round"/>
</svg>
