<svg width="17" height="16" viewBox="0 0 17 16" fill="none" xmlns="http://www.w3.org/2000/svg">
<path d="M12.4287 6H13.143C13.9008 6 14.6275 6.30102 15.1633 6.83684C15.6991 7.37266 16.0001 8.09938 16.0001 8.85714C16.0001 9.6149 15.6991 10.3416 15.1633 10.8774C14.6275 11.4133 13.9008 11.7143 13.143 11.7143H12.4287" stroke="#9A9A9A" stroke-linecap="round" stroke-linejoin="round"/>
<path d="M1 6H12.4286V12.4286C12.4286 13.1863 12.1276 13.9131 11.5917 14.4489C11.0559 14.9847 10.3292 15.2857 9.57143 15.2857H3.85714C3.09938 15.2857 2.37266 14.9847 1.83684 14.4489C1.30102 13.9131 1 13.1863 1 12.4286V6Z" stroke="#9A9A9A" stroke-linecap="round" stroke-linejoin="round"/>
<path d="M3.85693 1V3.14286" stroke="#9A9A9A" stroke-linecap="round" stroke-linejoin="round"/>
<path d="M6.71436 1V3.14286" stroke="#9A9A9A" stroke-linecap="round" stroke-linejoin="round"/>
<path d="M9.57129 1V3.14286" stroke="#9A9A9A" stroke-linecap="round" stroke-linejoin="round"/>
</svg>
